<svg xmlns="http://www.w3.org/2000/svg" viewBox="0 0 750 78.56"><defs><style>.cls-1{fill:#fff;}.cls-2{fill:#d5f1fd;}.cls-3{fill:#0064bc;}.cls-4{fill:none;stroke:#2b343c;stroke-miterlimit:10;}</style></defs><title>prioritization-ch5-6</title><g id="Layer_2" data-name="Layer 2"><g id="Layer_1-2" data-name="Layer 1"><rect class="cls-1" width="750" height="78.56"/><rect class="cls-2" x="583.44" y="12.35" width="70.69" height="25.62"/><rect class="cls-2" x="88.33" y="11.38" width="20.46" height="23.94"/><rect class="cls-2" x="208.52" y="11.38" width="11.27" height="23.94"/><rect class="cls-2" x="333.52" y="11.38" width="19.67" height="23.94"/><rect class="cls-2" x="210.44" y="48.38" width="17.75" height="23.94"/><path class="cls-3" d="M98.75,24.93H95.58v6.48H92.09V14.5h7.46c3.84,0,6.15,1.9,6.15,5.23a4.74,4.74,0,0,1-3.46,4.82l4.46,6.86h-4Zm-3.17-2.69h3.51c2,0,3-.77,3-2.46s-1-2.46-3-2.46H95.58Z"/><path class="cls-3" d="M122.55,28.57v2.84h-13V14.5H122.2v2.85h-9.15v4.2h7.2v2.71h-7.2v4.31Z"/><path class="cls-3" d="M135.34,27.29h-6.51l-1.38,4.12h-3.61L130,14.5h4.23l6.17,16.91h-3.66Zm-.87-2.62-1.59-4.76-.77-2.56h-.05l-.72,2.51-1.64,4.81Z"/><path class="cls-3" d="M149.61,31.67c-5,0-8.15-3.28-8.15-8.71s3.15-8.71,8.1-8.71c3.46,0,6,1.43,7,4.38L153.35,20a3.34,3.34,0,0,0-3.64-2.85c-2.82,0-4.58,2.05-4.58,5.82s1.66,5.81,4.5,5.81a3.68,3.68,0,0,0,3.9-3l3.25,1C155.76,30.05,153,31.67,149.61,31.67Z"/><path class="cls-3" d="M174.33,14.5V31.41H170.8V24.29h-7.46v7.12h-3.53V14.5h3.53v7h7.46V14.5Z"/><path class="cls-3" d="M216.55,31.79H213V14.88h3.54Z"/><path class="cls-3" d="M239.35,31.79h-3.18V23l.16-4.94h-.05l-4.69,13.76h-2.9L224,18H224l.18,4.94v8.82H221V14.88h5.13l3,9.22,1.07,3.82h.05l1.11-3.79,3-9.25h5Z"/><path class="cls-3" d="M257.08,20.31c0,3.36-2.31,5.33-6.23,5.33h-3.56v6.15h-3.53V14.88h7.09C254.77,14.88,257.08,16.85,257.08,20.31Zm-3.59,0c0-1.71-1-2.58-3.18-2.58h-3v5.2h3C252.52,22.9,253.49,22,253.49,20.28Z"/><path class="cls-3" d="M268.38,27.66h-6.51l-1.38,4.13h-3.62l6.18-16.91h4.23l6.17,16.91h-3.66Zm-.87-2.61-1.59-4.77-.77-2.56h0l-.72,2.51-1.64,4.82Z"/><path class="cls-3" d="M282.65,32c-5,0-8.15-3.28-8.15-8.71s3.15-8.71,8.1-8.71c3.45,0,6,1.44,7,4.38l-3.2,1.36a3.34,3.34,0,0,0-3.64-2.84c-2.82,0-4.59,2.05-4.59,5.81s1.67,5.82,4.51,5.82a3.68,3.68,0,0,0,3.9-3l3.25,1C288.8,30.43,286.08,32,282.65,32Z"/><path class="cls-3" d="M306.22,17.72h-5.66V31.79H297V17.72h-5.69V14.88h14.89Z"/><path class="cls-3" d="M344.21,31.67c-5,0-8.14-3.28-8.14-8.71s3.15-8.71,8.09-8.71c3.46,0,6,1.43,7,4.38L348,20a3.34,3.34,0,0,0-3.63-2.85c-2.82,0-4.59,2.05-4.59,5.82s1.66,5.81,4.51,5.81a3.67,3.67,0,0,0,3.89-3l3.26,1C350.36,30.05,347.65,31.67,344.21,31.67Z"/><path class="cls-3" d="M369.83,23c0,5.43-3.1,8.71-8.12,8.71s-8.15-3.28-8.15-8.71,3.13-8.71,8.15-8.71S369.83,17.53,369.83,23Zm-12.6,0c0,3.76,1.64,5.81,4.48,5.81s4.46-2.05,4.46-5.81-1.64-5.82-4.46-5.82S357.23,19.19,357.23,23Z"/><path class="cls-3" d="M387.92,31.41h-4.05L378,21.47l-1.46-2.84h0l.1,3v9.78h-3.18V14.5h4l5.91,9.92,1.46,2.87h.06l-.11-3V14.5h3.18Z"/><path class="cls-3" d="M395.86,17.35v4.28h7.2v2.86h-7.2v6.92h-3.53V14.5H405v2.85Z"/><path class="cls-3" d="M411.54,31.41H408V14.5h3.53Z"/><path class="cls-3" d="M430.81,23c0,5.4-3,8.45-8.33,8.45H416V14.5h6.53C427.78,14.5,430.81,17.55,430.81,23Zm-3.67,0c0-3.64-1.61-5.64-4.84-5.64h-2.82V28.59h2.82C425.53,28.59,427.14,26.6,427.14,23Z"/><path class="cls-3" d="M447.41,28.57v2.84h-13V14.5h12.68v2.85H437.9v4.2h7.2v2.71h-7.2v4.31Z"/><path class="cls-3" d="M465.11,31.41h-4.05l-5.91-9.94-1.46-2.84h0l.1,3v9.78h-3.18V14.5h4l5.92,9.92L462,27.29H462l-.11-3V14.5h3.18Z"/><path class="cls-3" d="M476.82,31.67c-5,0-8.15-3.28-8.15-8.71s3.15-8.71,8.1-8.71c3.46,0,6,1.43,7,4.38L480.56,20a3.34,3.34,0,0,0-3.64-2.85c-2.82,0-4.58,2.05-4.58,5.82s1.66,5.81,4.5,5.81a3.68,3.68,0,0,0,3.9-3l3.25,1C483,30.05,480.25,31.67,476.82,31.67Z"/><path class="cls-3" d="M500.06,28.57v2.84H487V14.5H499.7v2.85h-9.15v4.2h7.2v2.71h-7.2v4.31Z"/><path class="cls-3" d="M597.69,26.93h-3.17v6.48H591V16.5h7.46c3.84,0,6.15,1.9,6.15,5.23a4.74,4.74,0,0,1-3.46,4.82l4.46,6.86h-4Zm-3.17-2.69H598c2.05,0,3-.77,3-2.46s-.94-2.46-3-2.46h-3.51Z"/><path class="cls-3" d="M612,33.41h-3.54V16.5H612Z"/><path class="cls-3" d="M623.7,33.67c-5,0-8.15-3.28-8.15-8.71s3.15-8.71,8.1-8.71c3.45,0,6,1.43,7,4.38L627.44,22a3.35,3.35,0,0,0-3.64-2.85c-2.82,0-4.59,2.05-4.59,5.82s1.67,5.81,4.51,5.81a3.68,3.68,0,0,0,3.9-3l3.25,1C629.85,32.05,627.13,33.67,623.7,33.67Z"/><path class="cls-3" d="M646.93,30.57v2.84h-13V16.5h12.69v2.85h-9.15v4.2h7.2v2.71h-7.2v4.31Z"/><path class="cls-3" d="M590.47,50.24,588,52.63a4.56,4.56,0,0,0-4.57-2.72c-2.12,0-3.2.87-3.2,2.08s.92,1.74,3.9,2.28c4.56.84,6.27,2.25,6.27,5.07,0,3.18-2.89,5.07-6.94,5.07-3.84,0-6-1.1-7.46-3.15l2.11-2.51a5.34,5.34,0,0,0,5.22,2.79c2.18,0,3.36-.71,3.36-2,0-.92-.9-1.46-3.69-2-4.71-1-6.51-2.38-6.51-5.2,0-3,2.54-5.33,6.92-5.33A8,8,0,0,1,590.47,50.24Z"/><path class="cls-3" d="M601.05,64.41c-5,0-8.15-3.28-8.15-8.71S596.05,47,601,47c3.46,0,6,1.44,7,4.38l-3.2,1.36a3.34,3.34,0,0,0-3.64-2.84c-2.82,0-4.58,2-4.58,5.81s1.66,5.82,4.51,5.82a3.68,3.68,0,0,0,3.89-3l3.25,1C607.2,62.8,604.48,64.41,601.05,64.41Z"/><path class="cls-3" d="M626.67,55.7c0,5.43-3.1,8.71-8.12,8.71s-8.15-3.28-8.15-8.71S613.53,47,618.55,47,626.67,50.27,626.67,55.7Zm-12.61,0c0,3.77,1.64,5.82,4.49,5.82S623,59.47,623,55.7s-1.64-5.81-4.46-5.81S614.06,51.94,614.06,55.7Z"/><path class="cls-3" d="M636.89,57.67h-3.18v6.49h-3.48V47.25h7.45c3.85,0,6.15,1.89,6.15,5.22a4.72,4.72,0,0,1-3.46,4.82l4.46,6.87h-4ZM633.71,55h3.51c2,0,3-.76,3-2.46s-1-2.45-3-2.45h-3.51Z"/><path class="cls-3" d="M660.69,61.31v2.85h-13V47.25h12.68v2.84h-9.14v4.2h7.2V57h-7.2v4.3Z"/><path class="cls-3" d="M226.52,65.82v2.84h-13V51.75h12.68V54.6H217v4.2h7.2v2.71H217v4.31Z"/><path class="cls-3" d="M233.23,54.6v4.28h7.2v2.86h-7.2v6.92h-3.54V51.75h12.66V54.6Z"/><path class="cls-3" d="M248.91,54.6v4.28h7.2v2.86h-7.2v6.92h-3.54V51.75H258V54.6Z"/><path class="cls-3" d="M276.29,60.21c0,5.43-3.09,8.71-8.12,8.71S260,65.64,260,60.21s3.12-8.71,8.14-8.71S276.29,54.78,276.29,60.21Zm-12.6,0c0,3.76,1.64,5.81,4.48,5.81s4.46-2,4.46-5.81-1.64-5.82-4.46-5.82S263.69,56.44,263.69,60.21Z"/><path class="cls-3" d="M286.52,62.18h-3.18v6.48h-3.48V51.75h7.45c3.85,0,6.15,1.9,6.15,5.23A4.74,4.74,0,0,1,290,61.8l4.46,6.86h-4Zm-3.18-2.69h3.51c2,0,3-.77,3-2.46s-1-2.46-3-2.46h-3.51Z"/><path class="cls-3" d="M310.34,54.6h-5.66V68.66h-3.53V54.6h-5.69V51.75h14.88Z"/><line class="cls-4" x1="88.33" y1="40.97" x2="503.46" y2="40.97"/><line class="cls-4" x1="189.8" y1="19.02" x2="198.46" y2="27.68"/><line class="cls-4" x1="198.46" y1="19.02" x2="189.8" y2="27.68"/><line class="cls-4" x1="316.9" y1="19.02" x2="325.56" y2="27.68"/><line class="cls-4" x1="325.56" y1="19.02" x2="316.9" y2="27.68"/><line class="cls-4" x1="533.76" y1="38.97" x2="545.91" y2="38.97"/><line class="cls-4" x1="533.76" y1="42.97" x2="545.91" y2="42.97"/></g></g></svg>